<?xml version="1.0" standalone="no"?>
<!DOCTYPE svg PUBLIC "-//W3C//DTD SVG 20010904//EN"
 "http://www.w3.org/TR/2001/REC-SVG-20010904/DTD/svg10.dtd">
<svg version="1.0" xmlns="http://www.w3.org/2000/svg"
 width="500.000000pt" height="500.000000pt" viewBox="0 0 500.000000 500.000000"
 preserveAspectRatio="xMidYMid meet">
<metadata>
Created by potrace 1.14, written by Peter Selinger 2001-2017
</metadata>
<g transform="translate(0.000000,500.000000) scale(0.100000,-0.100000)"
fill="#000000" stroke="none">
<path d="M2467 4489 c-6 -3 -42 -9 -78 -13 -122 -12 -283 -76 -394 -158 -344
-254 -455 -713 -263 -1093 17 -33 39 -72 49 -87 10 -14 19 -31 19 -38 0 -10
-34 -60 -70 -103 -4 -4 -24 9 -44 30 -26 27 -35 44 -31 58 3 11 9 55 12 98 l6
78 -29 -7 c-40 -9 -139 -62 -160 -85 -19 -22 6 -45 -239 226 -49 55 -92 102
-95 105 -3 3 -59 65 -124 138 -65 72 -122 132 -125 132 -8 -1 -201 -257 -201
-267 1 -4 147 -111 325 -238 186 -132 325 -237 325 -245 0 -9 -4 -20 -9 -25
-20 -22 -71 -225 -57 -225 12 0 98 35 142 57 l52 26 44 -33 c23 -19 45 -35 46
-36 2 -2 -14 -26 -36 -55 l-41 -53 54 -101 c30 -55 83 -154 119 -220 36 -66
61 -121 57 -123 -4 -1 -32 4 -62 12 -51 14 -186 50 -359 97 -41 12 -82 22 -90
25 -8 2 -50 13 -93 25 -42 12 -79 20 -80 18 -2 -2 -50 -94 -107 -204 -56 -110
-145 -282 -197 -383 -52 -100 -93 -188 -90 -195 3 -7 67 -88 142 -182 76 -93
148 -183 160 -200 16 -20 26 -50 30 -90 3 -33 8 -70 10 -82 5 -22 0 -26 -115
-91 -19 -10 -125 -72 -235 -136 l-200 -116 -17 -67 c-25 -99 -27 -95 40 -89
110 10 264 22 387 31 50 3 108 7 130 10 22 2 78 7 125 10 47 4 103 8 125 10
22 2 52 4 67 4 25 1 33 12 88 122 68 136 67 136 -65 14 l-70 -65 -130 -1 c-71
0 -202 -2 -290 -4 -151 -3 -159 -3 -138 13 12 9 101 80 198 157 l175 140 -5
48 c-7 62 -14 117 -20 144 -4 19 -1 21 33 18 20 -2 102 -6 182 -10 80 -4 153
-9 162 -10 34 -7 18 10 -40 43 -31 17 -68 39 -82 47 -120 71 -233 135 -236
135 -2 0 -32 17 -66 38 -35 21 -70 41 -79 44 -8 3 -30 41 -49 83 -32 72 -33
78 -18 103 9 15 35 63 58 107 24 44 50 93 60 110 9 16 52 94 94 173 43 79 83
141 90 139 6 -2 174 -64 372 -137 l361 -132 33 -62 c18 -33 61 -113 95 -176
34 -63 84 -155 110 -205 26 -49 60 -112 75 -140 15 -27 43 -79 62 -115 l35
-65 -54 -119 c-29 -66 -50 -123 -46 -127 13 -11 340 -179 349 -179 5 0 20 39
34 88 l25 87 51 5 51 5 -18 90 c-21 99 -7 80 -170 226 -53 47 -59 57 -88 149
-17 54 -31 104 -31 112 0 9 53 26 175 54 l175 41 235 -72 c129 -40 235 -71
235 -69 0 2 -100 54 -222 115 l-221 111 -186 -32 c-102 -17 -196 -34 -208 -37
-20 -4 -26 7 -79 174 -32 98 -59 183 -60 188 -18 69 -77 242 -86 250 -7 7 -9
7 -5 -1 3 -6 8 -24 11 -40 3 -16 38 -186 77 -379 39 -192 73 -363 76 -380 2
-16 8 -45 13 -62 5 -18 7 -33 4 -33 -4 0 -7 7 -147 315 -52 116 -106 235 -120
265 -15 30 -91 198 -170 373 l-144 318 49 137 c27 75 58 160 70 189 l20 52 63
-53 c190 -162 404 -226 668 -201 94 9 107 20 24 20 -318 0 -631 209 -769 512
-30 68 -68 200 -68 237 1 21 1 21 16 1 69 -93 217 -210 333 -263 61 -28 221
-72 234 -65 5 3 -2 17 -16 32 -129 139 -209 358 -208 575 1 246 115 491 300
644 41 34 54 50 41 49 -11 -1 -26 -4 -33 -8z"/>
<path d="M2915 4360 c250 -166 398 -450 397 -760 -1 -136 -20 -231 -75 -354
-73 -167 -225 -339 -362 -410 -16 -9 -25 -16 -18 -16 15 0 92 42 153 84 175
119 323 342 355 536 4 25 9 54 11 65 3 11 4 63 5 116 l0 97 58 14 58 15 49
-45 c27 -24 92 -84 144 -131 52 -48 124 -114 160 -146 80 -73 177 -162 237
-218 28 -26 31 -27 84 -17 30 6 68 13 84 15 58 10 135 26 135 29 0 2 -28 22
-62 46 -59 40 -277 191 -413 287 -33 23 -111 76 -172 118 -62 42 -113 78 -113
80 0 2 44 -21 98 -52 53 -30 115 -65 137 -78 22 -12 100 -57 173 -99 73 -42
137 -76 143 -76 5 0 20 10 33 23 13 12 54 49 92 82 37 33 84 75 104 92 l35 32
-110 1 -110 0 -295 106 c-162 58 -304 106 -315 106 -11 0 -68 -16 -128 -36
-59 -20 -114 -36 -122 -36 -8 0 -19 17 -26 42 -51 190 -239 410 -436 512 -56
28 -50 17 12 -24z"/>
<path d="M3127 3319 c-53 -129 -144 -243 -257 -319 -52 -35 -155 -80 -184 -80
-8 0 -53 23 -101 51 -92 54 -96 55 -146 7 -8 -7 -29 -25 -47 -41 -39 -32 -28
-33 48 -8 l55 18 87 -43 c48 -24 93 -44 100 -44 7 0 53 20 103 44 169 83 297
234 360 424 25 77 15 72 -18 -9z"/>
<path d="M3430 3317 c0 -3 62 -100 139 -214 l138 -208 -14 -45 c-7 -25 -25
-85 -39 -135 l-25 -90 -152 -154 c-92 -93 -138 -146 -117 -134 19 12 108 64
197 117 l162 97 37 117 c20 64 46 150 59 190 l23 73 -22 22 c-13 12 -101 97
-197 189 -96 91 -177 170 -181 174 -5 4 -8 4 -8 1z"/>
<path d="M2020 3248 c8 -8 46 -52 84 -97 52 -61 76 -81 95 -82 14 0 38 -3 54
-5 15 -3 27 -3 27 0 0 3 -5 27 -11 54 l-10 49 -112 43 c-62 24 -119 45 -127
48 -13 5 -13 4 0 -10z"/>
<path d="M2880 3219 c-58 -22 -112 -43 -121 -45 -18 -6 -42 -101 -29 -109 4
-3 30 -1 56 4 49 9 49 9 137 111 17 19 39 45 50 58 11 12 19 22 16 22 -2 -1
-51 -19 -109 -41z"/>
<path d="M3204 2756 l-101 -131 0 -318 c0 -174 3 -317 7 -317 3 0 7 6 7 13 0
6 3 37 7 67 3 30 11 93 16 140 6 47 13 107 16 134 3 27 7 57 9 67 2 10 7 49
10 86 5 49 25 112 71 227 35 88 63 161 61 162 -1 1 -47 -57 -103 -130z"/>
<path d="M3365 2002 c6 -5 197 -111 425 -237 228 -125 419 -231 424 -236 6 -5
11 -15 12 -23 1 -7 16 -70 33 -140 33 -135 36 -156 22 -156 -10 0 -389 -165
-397 -172 -2 -3 8 -4 23 -2 15 2 53 6 83 8 50 5 86 9 190 21 19 3 64 7 100 10
36 3 74 8 85 10 11 2 38 4 60 4 74 2 74 -3 0 237 -37 121 -70 231 -72 246 -3
15 -10 31 -17 36 -21 17 -987 408 -971 394z"/>
<path d="M3102 1960 c0 -14 2 -19 5 -12 2 6 2 18 0 25 -3 6 -5 1 -5 -13z"/>
<path d="M1541 1913 c-1 -7 12 -74 28 -150 29 -136 37 -174 47 -223 2 -14 14
-69 25 -123 11 -54 18 -105 15 -115 -4 -9 -25 -36 -47 -60 -23 -24 -40 -45
-37 -47 3 -4 218 44 226 50 2 2 -72 200 -194 520 -55 142 -63 161 -63 148z"/>
<path d="M3202 1170 l-123 -117 108 -134 c60 -74 148 -182 197 -241 l87 -108
340 0 339 0 -52 104 -52 105 -186 100 c-103 56 -190 101 -193 101 -4 0 24 -39
63 -86 38 -47 70 -87 70 -89 0 -2 -65 -25 -144 -50 l-144 -47 -65 69 c-35 37
-76 82 -91 98 -15 17 -49 53 -74 80 -80 85 -79 68 -12 205 34 67 60 124 58
125 -2 2 -58 -50 -126 -115z"/>
</g>
</svg>
